<?xml version="1.0" encoding="UTF-8"?>
<svg id="uuid-669d4343-2c52-4572-9cbc-6f4ffa3599d9" data-name="Livello 2" xmlns="http://www.w3.org/2000/svg" viewBox="0 0 276.77 275.42">
  <g id="uuid-73f8cdf3-ebb2-4980-b07e-96cb22170d39" data-name="uuid-054184fc-ff27-4487-bcaf-6066ae601f7d">
    <path d="m140.99,275.42c-1.09,0-2.19-.01-3.29-.04h-.16c-18.59,0-36.63-3.62-53.61-10.76-16.46-6.92-31.23-16.85-43.9-29.49-12.55-12.53-22.41-27.11-29.29-43.33C3.62,175,0,157.16,0,138.78c-.01-36.98,14.31-71.73,40.32-97.86C66.34,14.8,101.1.27,138.19,0h1c18.41,0,36.32,3.59,53.22,10.69,16.64,6.98,31.56,17.02,44.36,29.83,12.67,12.69,22.59,27.44,29.47,43.83,7.15,17.02,10.69,35.08,10.54,53.68-.32,37.99-15.21,73.13-41.93,98.95-25.28,24.43-59.48,38.44-93.85,38.44Zm-1.8-273.42h-.99c-36.56.26-70.82,14.59-96.46,40.33C16.1,68.08,1.99,102.33,2,138.78c0,18.11,3.57,35.69,10.59,52.23,6.78,15.98,16.49,30.34,28.86,42.69,12.48,12.46,27.04,22.24,43.26,29.06,16.73,7.04,34.51,10.61,52.84,10.61h.18c1.1.03,2.19.04,3.26.04,33.85,0,67.55-13.81,92.46-37.88,26.33-25.44,41-60.08,41.32-97.53.15-18.32-3.34-36.11-10.38-52.88-6.78-16.16-16.55-30.69-29.04-43.19-12.61-12.63-27.32-22.52-43.71-29.4-16.66-6.99-34.3-10.54-52.45-10.54Zm12.02,262.22c-12.24,0-24.58-1.13-36.52-2.22-2.68-.25-5.36-.49-8.02-.72-3.39-.3-7.8-4.1-8.43-7.26-3.44-17.35-6.55-34.78-9.84-53.22l-.03-.15c-.95-5.33-1.92-10.75-2.92-16.28l-.18-.12-.03-2.78.96-.19.73-1.06,1.65,1.14c34.41,23.75,67.08,46.31,102.37,70.68l3.78,2.61-4.44,1.19c-3.98,1.06-7.7,2.25-11.29,3.4-7.84,2.51-14.58,4.67-21.71,4.9-1.95.07-4,.1-6.1.1Zm-63.95-81.06h0s.08.42.08.42c1.02,5.68,2.02,11.24,2.99,16.71l.02.12c3.3,18.47,6.41,35.88,9.84,53.22.45,2.27,4.17,5.44,6.64,5.66,2.67.23,5.34.48,8.03.72,11.9,1.09,24.2,2.21,36.34,2.21,2.07,0,4.1-.03,6.03-.1,6.85-.23,13.47-2.35,21.13-4.8,3.64-1.17,7.38-2.36,11.41-3.43l.26-.07-.22-.15c-35.29-24.37-67.96-46.93-102.37-70.68l-.05.08-.14.03v.07Zm6.26,74.36c-.08,0-.15,0-.22-.02-.08,0-1.07-.15-3.33-.99h0c-2.29-.84-8.18-4.35-8.43-4.5-.52-.28-13.5-7.44-19.02-12.53-9.79-9.01-18.57-19.33-27.05-29.32-1.97-2.32-3.97-4.67-5.95-6.97-2.13-2.47-3.31-7.88-1.61-10.44,10.44-15.67,21.18-31.17,32.54-47.59,2.99-4.31,5.97-8.62,9.01-13.01l2.91-4.2.44,2.36c.91,4.91,22.4,120.21,22.7,123.27.16,1.67-.09,2.79-.78,3.43-.39.37-.85.5-1.21.5Zm-22.24-124.47l-.18.25c-3.03,4.39-6.02,8.7-8.97,12.96-11.4,16.46-22.13,31.96-32.56,47.61-1.07,1.6-.26,6.02,1.46,8.02,1.98,2.3,3.98,4.65,5.92,6.93,8.48,9.98,17.22,20.25,26.92,29.18,5.34,4.92,18.53,12.19,18.66,12.26.09.05,6.01,3.58,8.13,4.36h0c1.52.56,2.39.78,2.75.85.08-.16.22-.62.11-1.7-.23-2.33-14.39-78.64-22.24-120.74Zm124.08,117c-1.32,0-3.2-.2-4.64-1.15-14.82-9.71-29.64-19.93-43.96-29.82-3.33-2.3-6.6-4.55-9.87-6.81-.76-.53-1.19-1.19-1.78-2.11-.33-.51-.71-1.09-1.25-1.83l-1.97-2.74,3.32-.6c39.64-7.03,78.14-13.86,118.42-21.01l4-.72-1.7,3.7c-.73,1.59-1.36,3.04-1.97,4.45-1.25,2.86-2.31,5.29-3.61,7.65-11.59,20.95-27.78,37.54-48.14,49.31-1.77,1.02-4.46,1.68-6.85,1.68Zm-60-43.04l.12.16c.56.77.95,1.38,1.28,1.88.53.82.84,1.29,1.27,1.59,3.27,2.25,6.55,4.51,9.87,6.81,14.32,9.88,29.12,20.09,43.92,29.79,1.03.68,2.5.82,3.54.82,2.07,0,4.37-.55,5.85-1.41,20.03-11.59,35.97-27.92,47.38-48.55,1.26-2.28,2.3-4.66,3.5-7.42.64-1.47,1.28-2.93,2.01-4.53l.1-.22-.23.04c-40.28,7.15-78.78,13.98-118.42,21.01l-.19.04Zm-3.54-4.15c-4.51,0-9.15-1.18-12.4-3.17-11.15-6.79-21.52-14.42-30.2-21-3.31-2.51-6.07-6.64-6.89-10.29-2.5-11.21-4.76-23.58-6.89-37.82-.48-3.22.5-7.52,2.39-10.47,6.92-10.74,14.09-21.16,21.3-30.98,1.94-2.64,5.57-4.95,9.04-5.74l.18-.04c11.4-2.63,23.18-5.35,35-6.79,5.04-.61,10.35,1.35,15.79,3.58,2.15.88,3.93,2.33,5.65,3.73,1.51,1.23,3.07,2.51,4.67,3.13,26.94,10.57,29.7,33.24,32.62,57.24l.02.13c.33,2.69.67,5.46,1.04,8.2l.08.57-.23.56c-.09.18-.15.34-.23.53-.5,1.19-1.36,3.26-2.62,5.09l-3.27,4.75c-5.91,8.61-12.01,17.49-18.51,25.88-2.45,3.16-6.92,5.94-11.14,6.92-12.03,2.8-22.72,4.71-32.68,5.82-.88.1-1.8.15-2.73.15Zm13.45-124.4c-.56,0-1.12.03-1.67.1-11.71,1.42-23.45,4.13-34.8,6.75l-.18.04c-3.03.7-6.2,2.7-7.87,4.98-7.19,9.79-14.34,20.18-21.24,30.88-1.65,2.57-2.52,6.3-2.1,9.09,2.12,14.19,4.37,26.52,6.86,37.68.72,3.22,3.19,6.89,6.15,9.13,8.63,6.54,18.95,14.15,30.03,20.89,2.95,1.8,7.2,2.88,11.36,2.88.86,0,1.7-.05,2.51-.14,9.88-1.11,20.49-3,32.44-5.78,3.8-.89,7.82-3.38,10.01-6.2,6.46-8.35,12.54-17.2,18.42-25.76l3.29-4.78c1.14-1.65,1.96-3.6,2.39-4.65.13-.31.21-.5.29-.66h0s0-.04,0-.04c-.38-2.75-.72-5.53-1.04-8.22l-.02-.13c-2.85-23.39-5.54-45.49-31.37-55.62-1.89-.74-3.58-2.12-5.2-3.45-1.61-1.31-3.27-2.66-5.14-3.43-4.57-1.88-9.01-3.55-13.12-3.55Zm39.13,115.25l-.87-1.02-2.08-2.94.73-1.29c11.45-16.11,22.85-32.16,34.36-48.35l38.18-53.73,1.51,3.42c6.19,13.96,9.16,28.11,9.62,45.88.07,2.8.06,5.12-.03,7.28-1.46,34.27-2.46,35.44-35.71,41.98-9.77,1.92-19.7,3.81-29.3,5.65l-.45.08c-4.92.94-9.83,1.88-14.75,2.82l-1.21.23Zm-.59-4.09l1.35,1.91h.07c4.92-.96,9.84-1.9,14.75-2.83l.44-.08c9.6-1.83,19.52-3.73,29.29-5.64,32.36-6.36,32.68-6.73,34.1-40.1.09-2.12.1-4.39.03-7.15-.45-17.49-3.37-31.4-9.45-45.12l-.09-.2-36.15,50.87c-11.49,16.17-22.88,32.2-34.33,48.3l-.03.05Zm-160.15,3.14l-1.48-3.58c-11.28-27.27-13.56-53.97-6.97-81.62.69-2.89,3.25-7.23,6.27-7.85,18.38-3.82,36.9-7.36,56.5-11.1l1.4-.27c4.81-.92,9.71-1.85,14.7-2.81l5.14-.99L23.67,192.75Zm71.1-105.32l-.3.06c-5,.96-9.89,1.89-14.71,2.81l-1.39.26c-19.62,3.74-38.13,7.27-56.49,11.09-2.06.43-4.18,4.05-4.73,6.35-6.48,27.22-4.23,53.52,6.88,80.39l.09.21,70.65-101.18Zm111.29,63.44l-.93-5.01c-7.87-42.3-15.25-81.97-23.01-123.7l-.66-3.62,3.46,1.23c18,6.35,33.04,16.37,45.99,30.65,5.99,6.6,11.04,14.14,15.93,21.43,1.04,1.55,2.07,3.08,3.1,4.6,1.55,2.28,2.7,6.98,1.03,9.44-10.54,15.59-21.32,31.08-32.75,47.48-3.05,4.37-6.12,8.79-9.27,13.32l-2.9,4.18Zm-22.01-129.29l.04.22c7.76,41.73,15.14,81.4,23.01,123.7l.06.3.17-.25c3.15-4.52,6.22-8.94,9.25-13.28,11.44-16.43,22.23-31.91,32.76-47.49,1.1-1.63.13-5.49-1.03-7.2-1.04-1.53-2.07-3.06-3.1-4.6-4.86-7.24-9.87-14.71-15.76-21.21-12.72-14.02-27.5-23.87-45.18-30.1l-.21-.07Zm3.99,75.82l-.9-.92L82.04,23.83l3.46-1.54c26.56-11.81,51.78-15,77.12-9.75,15.13,3.15,16.02,4.07,18.92,19.77l.03.17,11.6,62.66-5.14,2.25ZM86.11,24.21l102.31,70.73.07.07,2.43-1.06-11.35-61.27c-2.77-15.01-2.93-15.18-17.35-18.17-24.92-5.16-49.75-2.02-75.91,9.62l-.2.09ZM17.83,97.18l1.68-3.69c.95-2.1,1.8-4.04,2.61-5.92,1.66-3.84,3.1-7.15,4.89-10.41,11.23-20.4,26.7-36.48,45.97-47.82,2.93-1.72,8.59-2.24,11.5-.33,15.28,10,30.56,20.48,45.33,30.63l1.09.75c3.01,2.07,6.03,4.14,9.04,6.2.89.6,1.63,1.34,2.65,2.37.61.62,1.28,1.29,2.14,2.1l1.57,1.5-2.01,2.02-43.11,7.71c-26.36,4.71-52.47,9.39-79.36,14.19l-3.98.71ZM79.51,29.79c-2.01,0-4.16.49-5.51,1.28-18.96,11.15-34.18,26.98-45.23,47.06-1.75,3.17-3.17,6.45-4.81,10.24-.82,1.89-1.67,3.85-2.63,5.96l-.1.22.23-.04c26.89-4.8,53-9.47,79.36-14.19l42.49-7.6.13-.13-.09-.09c-.87-.82-1.55-1.5-2.16-2.12-.99-1-1.64-1.64-2.37-2.14-3.02-2.07-6.03-4.14-9.05-6.21l-1.09-.75c-14.76-10.14-30.02-20.62-45.29-30.6-.95-.62-2.38-.9-3.88-.9Z" stroke-width="0"/>
  </g>
</svg>