<?xml version="1.0" encoding="UTF-8"?>
<svg id="Livello_1" data-name="Livello 1" xmlns="http://www.w3.org/2000/svg" viewBox="0 0 354.95 276.82">
  <path d="m310.33,0C325.19,0,340.06,0,354.93,0c.01,92.2.01,184.41.01,276.82H0C0,209.08,0,141.4,0,73.72c1.99,9.61,4.78,19.13,5.79,28.84,2.28,21.77,11.07,42.76,6.05,65.49-3.01,13.64-3.69,27.89-4.4,41.91-1.06,20.94.27,22.04,21.47,24.94.63.09,1.18.79,1.85,1.26,1.65,8.62,3.68,17.24,4.88,25.97,1.33,9.67,6.86,14.02,15.94,12.5,25.29-4.21,50.47-9.01,75.69-13.65,2.13-.39,4.15-1.35,6.23-2.05-.93-1.36-1.86-2.72-2.79-4.08-4.28,0-8.67-.63-12.82.11-21.62,3.83-43.25,7.69-64.73,12.24-6.73,1.42-9.76.04-10.84-6.7-1.21-7.57-2.88-15.07-4.7-24.42,7.76,1.03,14.56,1.99,21.37,2.81,43.43,5.25,86.84,10.63,130.29,15.67,39.88,4.62,79.8,8.93,119.72,13.24,8.56.92,14.58-3.34,16.51-11.46,1.69-7.13,2.4-14.64,2.36-21.98-.03-7.31,1.98-10.67,9.92-11.21,11.36-.77,15.85-6.66,14.67-17.63-.71-6.57-2.15-13.06-3.28-19.59-3.25-18.8-8.86-37.57-9.13-56.42-.3-20.88,3.87-41.89,6.89-62.72,2.31-15.92-1.44-22.29-17.6-23.97-6.35-.66-7.33-3.31-8.49-8.89C318.45,22.38,319.93,9.38,310.33,0Z" style="fill: #fff; stroke-width: 0px;"/>
  <path d="m310.33,0c9.6,9.38,8.13,22.38,10.54,33.96,1.17,5.58,2.14,8.23,8.49,8.89,16.15,1.68,19.91,8.05,17.6,23.97-3.03,20.84-7.19,41.85-6.89,62.72.27,18.84,5.88,37.61,9.13,56.42,1.13,6.52,2.57,13.02,3.28,19.59,1.18,10.97-3.31,16.86-14.67,17.63-7.93.54-9.95,3.9-9.92,11.21.04,7.34-.67,14.85-2.36,21.98-1.93,8.12-7.94,12.39-16.51,11.46-39.92-4.31-79.84-8.62-119.72-13.24-43.45-5.04-86.87-10.41-130.29-15.67-6.81-.82-13.61-1.79-21.37-2.81,1.82,9.35,3.49,16.84,4.7,24.42,1.07,6.73,4.11,8.12,10.84,6.7,21.48-4.55,43.11-8.41,64.73-12.24,4.15-.73,8.54-.11,12.82-.11.93,1.36,1.86,2.72,2.79,4.08-2.07.7-4.1,1.66-6.23,2.05-25.21,4.64-50.4,9.44-75.69,13.65-9.08,1.51-14.61-2.83-15.94-12.5-1.2-8.74-3.23-17.36-4.88-25.97-.67-.47-1.22-1.17-1.85-1.26-21.2-2.9-22.52-4-21.47-24.94.71-14.03,1.39-28.27,4.4-41.91,5.02-22.73-3.77-43.72-6.05-65.49-1.02-9.71-3.81-19.23-5.79-28.84,0-4.47,0-8.94,0-13.4,7.51-3.89,15.02-7.79,24.73-12.82.37-2.29,1.79-7.68,2.05-13.12,1.05-22.33,4.57-25.56,26.35-23.25,1.84.19,3.73-.1,5.57.09,22.73,2.35,45.48,4.61,68.19,7.18,23.37,2.64,46.71,5.58,70.05,8.44,21.91,2.68,43.8,5.53,65.72,8.14,17.11,2.04,34.24,3.83,52.4,5.84-1.81-10.27-2.75-19.04-5.23-27.36-.67-2.26-6.22-4.81-9.12-4.39-20.68,2.95-41.23,6.76-61.87,10.02-7.81,1.24-15.73,1.76-23.6,2.61-.28-1.63-.56-3.26-.84-4.89,7.45-1.87,14.84-4.03,22.36-5.56C256.04,7.35,275.38,3.73,294.7,0c5.21,0,10.42,0,15.63,0ZM11.89,211.48c-3.38,11.04,1.86,15.47,12.02,16.39,9.57.87,19.17,1.35,28.72,2.3,22.75,2.25,45.5,4.52,68.21,7.07,23.72,2.66,47.41,5.62,71.1,8.53,21.88,2.69,43.73,5.64,65.63,8.21,17.22,2.02,34.49,3.57,51.72,5.44,5.8.63,9.35-1.32,9.93-7.48.76-8.09,1.43-16.2,2.37-24.27,3.33-28.61,6.7-57.21,10.17-85.8,3.29-27.13,7.01-54.21,9.74-81.39.3-3-4.02-7.71-7.35-9.5-3.65-1.96-8.62-1.56-13.03-2-23.5-2.36-47.02-4.49-70.49-7.03-24.12-2.62-48.19-5.63-72.29-8.46-20.82-2.44-41.64-4.83-62.45-7.3-23.74-2.82-47.49-5.6-71.21-8.65-6.15-.79-8.76,1.17-9.44,7.43-1.85,16.86-4.45,33.63-6.27,50.49-2.5,23.11-4.09,46.32-6.97,69.38-2.78,22.29-6.7,44.43-10.13,66.64ZM23.65,60.63c-15.44-.37-16.85.9-14.68,14.27,2.14,13.2,4.9,26.29,7.39,39.43.45,0,.89,0,1.34,0,1.96-17.64,3.91-35.28,5.95-53.69Zm306.13,158.11c6.61-4.44,14.73-7.64,14.52-10.14-1.16-13.69-4.37-27.21-6.87-40.78-.67.16-1.35.32-2.02.48-1.75,15.66-3.5,31.32-5.63,50.45Z" style="stroke-width: 0px;"/>
  <path d="m294.7,0c-19.32,3.73-38.65,7.35-57.93,11.25-7.52,1.52-14.91,3.69-22.36,5.56.28,1.63.56,3.26.84,4.89,7.87-.85,15.79-1.38,23.6-2.61,20.64-3.27,41.19-7.07,61.87-10.02,2.91-.41,8.45,2.13,9.12,4.39,2.48,8.32,3.42,17.09,5.23,27.36-18.15-2.01-35.29-3.8-52.4-5.84-21.92-2.61-43.81-5.45-65.72-8.14-23.34-2.86-46.68-5.79-70.05-8.44-22.71-2.57-45.46-4.82-68.19-7.18-1.84-.19-3.73.11-5.57-.09-21.78-2.31-25.3.92-26.35,23.25-.26,5.44-1.68,10.83-2.05,13.12C15.02,52.53,7.51,56.43,0,60.32V0C98.23,0,196.47,0,294.7,0Z" style="fill: #fff; stroke-width: 0px;"/>
  <path d="m11.89,211.48c3.42-22.21,7.34-44.35,10.13-66.64,2.88-23.06,4.46-46.27,6.97-69.38,1.83-16.86,4.42-33.64,6.27-50.49.69-6.25,3.3-8.22,9.44-7.43,23.71,3.06,47.46,5.83,71.21,8.65,20.81,2.47,41.64,4.86,62.45,7.3,24.09,2.83,48.17,5.84,72.29,8.46,23.48,2.55,47,4.67,70.49,7.03,4.41.44,9.38.04,13.03,2,3.32,1.78,7.65,6.5,7.35,9.5-2.73,27.18-6.44,54.26-9.74,81.39-3.47,28.59-6.84,57.19-10.17,85.8-.94,8.07-1.61,16.18-2.37,24.27-.58,6.16-4.13,8.11-9.93,7.48-17.23-1.87-34.5-3.43-51.72-5.44-21.9-2.57-43.75-5.51-65.63-8.21-23.69-2.91-47.38-5.87-71.1-8.53-22.72-2.55-45.46-4.82-68.21-7.07-9.56-.95-19.16-1.43-28.72-2.3-10.16-.92-15.4-5.36-12.02-16.39Zm54.92-31.16c1.11,1.7,2.23,3.4,3.34,5.09,29.72-18.66,59.43-37.33,88.89-55.83,19.27,24.89,38.22,49.38,57.18,73.87,1.38-.96,2.77-1.91,4.15-2.87-5.67-16.47-20.24-27.74-28.53-42.9,8.65-5.17,16.79-10.03,24.51-14.63,12.51,14.5,24.52,28.43,36.53,42.35,1.27-.84,2.55-1.69,3.82-2.53-1.43-3.18-2.28-6.82-4.38-9.47-9.43-11.87-18.92-23.72-29.11-34.92-2.02-2.22-7.92-3.18-10.78-1.91-9.16,4.07-17.74,9.47-26.4,14.28-6.43-8.07-13.11-15.09-18.14-23.16-4.81-7.7-9.27-7.63-16.18-3.17-21.89,14.13-44.11,27.74-66.04,41.82-6.57,4.22-12.58,9.3-18.85,13.98Zm57.92-95.54c.14-15.82-12.54-29.22-27.33-28.9-14.27.31-26.43,13.38-26.62,28.59-.19,15.7,12.18,28.63,27.41,28.66,14.63.02,26.41-12.55,26.55-28.34Zm137.89,101.54c-.95.79-1.91,1.57-2.86,2.36.92,10.88,3.49,13.67,14.88,13.1-4.64-5.97-8.33-10.71-12.02-15.45Z" style="fill: #fff; stroke-width: 0px;"/>
  <path d="m23.65,60.63c-2.04,18.41-4,36.05-5.95,53.69-.45,0-.89,0-1.34,0-2.49-13.14-5.25-26.23-7.39-39.43-2.17-13.37-.76-14.64,14.68-14.27Z" style="fill: #fff; stroke-width: 0px;"/>
  <path d="m329.78,218.74c2.14-19.13,3.88-34.79,5.63-50.45.67-.16,1.35-.32,2.02-.48,2.5,13.58,5.71,27.09,6.87,40.78.21,2.49-7.92,5.7-14.52,10.14Z" style="fill: #fff; stroke-width: 0px;"/>
  <path d="m66.81,180.32c6.27-4.68,12.28-9.76,18.85-13.98,21.92-14.07,44.15-27.68,66.04-41.82,6.91-4.46,11.37-4.54,16.18,3.17,5.03,8.06,11.72,15.09,18.14,23.16,8.66-4.81,17.24-10.2,26.4-14.28,2.86-1.27,8.77-.31,10.78,1.91,10.19,11.2,19.68,23.05,29.11,34.92,2.1,2.65,2.95,6.29,4.38,9.47-1.27.84-2.55,1.69-3.82,2.53-12.01-13.92-24.02-27.85-36.53-42.35-7.72,4.61-15.85,9.47-24.51,14.63,8.29,15.15,22.86,26.42,28.53,42.9-1.38.96-2.77,1.91-4.15,2.87-18.96-24.49-37.91-48.97-57.18-73.87-29.45,18.5-59.17,37.16-88.89,55.83-1.11-1.7-2.23-3.4-3.34-5.09Z" style="stroke-width: 0px;"/>
  <path d="m124.73,84.78c-.14,15.79-11.91,28.36-26.55,28.34-15.23-.02-27.6-12.95-27.41-28.66.19-15.21,12.35-28.28,26.62-28.59,14.79-.32,27.47,13.09,27.33,28.9Zm-46.66-.23c.02,10.97,9.46,20.61,20,20.43,10.18-.18,20.38-10.64,20.26-20.77-.11-10.01-9.68-19.29-20.04-19.43-11.34-.16-20.24,8.54-20.22,19.77Z" style="stroke-width: 0px;"/>
  <path d="m262.62,186.32c3.69,4.74,7.38,9.48,12.02,15.45-11.39.57-13.96-2.22-14.88-13.1.95-.79,1.91-1.57,2.86-2.36Z" style="stroke-width: 0px;"/>
  <path d="m78.07,84.55c-.02-11.23,8.88-19.93,20.22-19.77,10.36.14,19.93,9.42,20.04,19.43.12,10.13-10.08,20.58-20.26,20.77-10.54.19-19.99-9.46-20-20.43Z" style="fill: #fff; stroke-width: 0px;"/>
</svg>