<?xml version="1.0" encoding="UTF-8"?>
<svg id="uuid-054184fc-ff27-4487-bcaf-6066ae601f7d" data-name="Livello 1" xmlns="http://www.w3.org/2000/svg" viewBox="0 0 323.27 326.84">
  <path d="m0,326.84V0h323.27v326.84H0Zm160.79-23.31c70.09,1.81,136.21-54.64,136.89-135.24.64-75.41-61.32-136.41-136.44-135.88-75.54.53-136.11,61.36-136.08,136.65.03,74.37,60.76,134.59,135.63,134.47Z" style="fill: #fff; stroke-width: 0px;"/>
  <path d="m160.79,303.53c-74.87.11-135.61-60.1-135.63-134.47-.03-75.29,60.55-136.11,136.08-136.65,75.12-.53,137.07,60.47,136.44,135.88-.68,80.6-66.8,137.05-136.89,135.24Zm63.29-120.38c-3.6-26.37-3.54-52.57-32.35-63.88-3.77-1.48-6.59-5.34-10.35-6.88-4.65-1.91-10-4.01-14.73-3.44-11.76,1.43-23.39,4.12-34.96,6.79-2.87.66-6.09,2.6-7.8,4.93-7.39,10.06-14.46,20.37-21.23,30.87-1.59,2.47-2.51,6.13-2.08,9,1.89,12.62,4.08,25.22,6.86,37.67.75,3.35,3.32,6.95,6.1,9.06,9.71,7.36,19.62,14.55,30.02,20.88,3.79,2.31,9.29,3.22,13.79,2.72,10.9-1.22,21.74-3.29,32.43-5.78,3.64-.85,7.68-3.24,9.94-6.15,7.64-9.87,14.62-20.26,21.71-30.54,1.45-2.1,2.33-4.59,2.65-5.25Zm-12.52-58c.75-.33,1.51-.66,2.26-.99-3.77-20.33-7.53-40.67-11.3-61-2.79-15.1-2.76-15.23-17.29-18.25-25.72-5.33-50.33-1.73-75.83,9.61,34.95,24.16,68.55,47.39,102.15,70.62Zm-4.32-73.1c7.76,41.73,15.14,81.4,23.01,123.7,15.15-21.79,28.75-41.16,42-60.77,1.01-1.5.21-5.24-1.03-7.06-5.99-8.81-11.73-17.95-18.85-25.8-12.02-13.25-26.41-23.47-45.13-30.07Zm-40.94,50.82c-2.46-2.34-3.37-3.47-4.52-4.25-18.41-12.61-36.75-25.34-55.42-37.55-2.15-1.41-6.84-1.03-9.26.39-19.41,11.41-34.35,27.32-45.19,47.01-2.62,4.76-4.56,9.89-7.43,16.19,41.2-7.36,80.59-14.41,121.81-21.78Zm-51.9,182.59c.64-.63,1.29-1.25,1.93-1.88-7.22-39.2-14.44-78.4-22.09-119.93-14.8,21.42-28.39,40.85-41.53,60.57-1.1,1.65-.11,6.06,1.45,7.87,10.62,12.33,20.9,25.13,32.83,36.11,7.81,7.19,18.19,11.6,27.41,17.25Zm-3.99-72.1c4.52,25.09,8.45,47.86,12.94,70.52.45,2.27,4.13,5.35,6.53,5.56,16.77,1.46,33.63,3.4,50.39,2.84,10.1-.34,20.06-4.91,32.51-8.23-35.29-24.37-67.96-46.93-102.37-70.68Zm96.59,6.52c.42.59.83,1.19,1.25,1.78,14.83-2.85,29.67-5.64,44.49-8.55,32.37-6.36,32.58-6.62,34-39.98.1-2.38.09-4.76.03-7.14-.39-15.06-2.63-29.72-9.44-45.07-24.02,33.79-47.17,66.38-70.33,98.96Zm-159.82-1.25c23.5-33.65,46.15-66.1,70.34-100.74-26.06,5-49.37,9.34-72.58,14.17-1.93.4-4.06,3.87-4.63,6.26-6.38,26.79-4.43,52.98,6.87,80.31Zm111.43,18.74c1.49,2.07,1.85,2.97,2.51,3.43,17.87,12.3,35.66,24.72,53.8,36.6,2.11,1.39,6.79.83,9.26-.59,20.26-11.72,36.01-28.02,47.34-48.5,1.89-3.42,3.3-7.11,5.51-11.95-40.28,7.15-78.78,13.98-118.42,21.01Z" style="stroke-width: 0px;"/>
  <path d="m224.08,183.15c-.32.66-1.2,3.15-2.65,5.25-7.1,10.28-14.07,20.67-21.71,30.54-2.26,2.92-6.3,5.31-9.94,6.15-10.69,2.49-21.53,4.56-32.43,5.78-4.49.5-9.99-.41-13.79-2.72-10.4-6.33-20.31-13.52-30.02-20.88-2.78-2.11-5.35-5.71-6.1-9.06-2.77-12.45-4.97-25.05-6.86-37.67-.43-2.87.49-6.53,2.08-9,6.77-10.49,13.83-20.81,21.23-30.87,1.72-2.34,4.94-4.27,7.8-4.93,11.57-2.67,23.2-5.36,34.96-6.79,4.73-.57,10.08,1.53,14.73,3.44,3.76,1.54,6.58,5.4,10.35,6.88,28.81,11.31,28.75,37.51,32.35,63.88Z" style="fill: #fff; stroke-width: 0px;"/>
  <path d="m211.56,125.15c-33.6-23.23-67.2-46.46-102.15-70.62,25.5-11.35,50.11-14.95,75.83-9.61,14.53,3.01,14.5,3.15,17.29,18.25,3.76,20.33,7.53,40.67,11.3,61-.75.33-1.51.66-2.26.99Z" style="fill: #fff; stroke-width: 0px;"/>
  <path d="m207.24,52.05c18.72,6.6,33.11,16.82,45.13,30.07,7.12,7.85,12.86,16.99,18.85,25.8,1.24,1.83,2.04,5.56,1.03,7.06-13.24,19.61-26.84,38.98-42,60.77-7.87-42.29-15.25-81.97-23.01-123.7Z" style="fill: #fff; stroke-width: 0px;"/>
  <path d="m166.3,102.88c-41.22,7.37-80.61,14.41-121.81,21.78,2.87-6.3,4.81-11.43,7.43-16.19,10.84-19.69,25.78-35.6,45.19-47.01,2.41-1.42,7.1-1.79,9.26-.39,18.67,12.21,37.01,24.94,55.42,37.55,1.15.78,2.05,1.91,4.52,4.25Z" style="fill: #fff; stroke-width: 0px;"/>
  <path d="m114.4,285.47c-9.23-5.65-19.6-10.06-27.41-17.25-11.92-10.99-22.2-23.78-32.83-36.11-1.56-1.81-2.55-6.22-1.45-7.87,13.15-19.72,26.73-39.15,41.53-60.57,7.65,41.52,14.87,80.73,22.09,119.93-.64.63-1.29,1.25-1.93,1.88Z" style="fill: #fff; stroke-width: 0px;"/>
  <path d="m110.41,213.36c34.41,23.76,67.08,46.32,102.37,70.68-12.45,3.32-22.41,7.89-32.51,8.23-16.75.57-33.62-1.38-50.39-2.84-2.4-.21-6.08-3.29-6.53-5.56-4.49-22.66-8.43-45.43-12.94-70.52Z" style="fill: #fff; stroke-width: 0px;"/>
  <path d="m207,219.88c23.16-32.58,46.31-65.17,70.33-98.96,6.81,15.35,9.05,30.01,9.44,45.07.06,2.38.08,4.76-.03,7.14-1.43,33.36-1.63,33.62-34,39.98-14.82,2.91-29.66,5.7-44.49,8.55-.42-.59-.83-1.19-1.25-1.78Z" style="fill: #fff; stroke-width: 0px;"/>
  <path d="m47.18,218.63c-11.29-27.33-13.25-53.52-6.87-80.31.57-2.39,2.69-5.86,4.63-6.26,23.21-4.83,46.52-9.17,72.58-14.17-24.19,34.64-46.84,67.09-70.34,100.74Z" style="fill: #fff; stroke-width: 0px;"/>
  <path d="m158.61,237.37c39.64-7.03,78.14-13.86,118.42-21.01-2.21,4.84-3.61,8.53-5.51,11.95-11.34,20.48-27.08,36.78-47.34,48.5-2.46,1.43-7.14,1.98-9.26.59-18.14-11.89-35.94-24.3-53.8-36.6-.66-.46-1.02-1.36-2.51-3.43Z" style="fill: #fff; stroke-width: 0px;"/>
</svg>